<mxfile host="Electron" modified="2024-05-06T15:28:16.007Z" agent="Mozilla/5.0 (Windows NT 10.0; Win64; x64) AppleWebKit/537.36 (KHTML, like Gecko) draw.io/24.2.5 Chrome/120.0.6099.109 Electron/28.1.0 Safari/537.36" etag="-YWkirMetagNzRHMcMhW" version="24.2.5" type="device">
  <diagram name="Página-1" id="E-DP9fMv0TR5NF7smadX">
    <mxGraphModel dx="1420" dy="822" grid="1" gridSize="6" guides="1" tooltips="1" connect="1" arrows="1" fold="1" page="1" pageScale="1" pageWidth="900" pageHeight="320" math="1" shadow="0">
      <root>
        <mxCell id="0" />
        <mxCell id="1" parent="0" />
        <mxCell id="fKFMLFZVbvzxOKWI5Wfe-28" value="" style="endArrow=none;dashed=1;html=1;dashPattern=1 2;strokeWidth=1;rounded=0;" edge="1" parent="1">
          <mxGeometry width="50" height="50" relative="1" as="geometry">
            <mxPoint x="540" y="120" as="sourcePoint" />
            <mxPoint x="852" y="120" as="targetPoint" />
          </mxGeometry>
        </mxCell>
        <mxCell id="fKFMLFZVbvzxOKWI5Wfe-29" value="" style="endArrow=none;dashed=1;html=1;dashPattern=1 2;strokeWidth=1;rounded=0;" edge="1" parent="1">
          <mxGeometry width="50" height="50" relative="1" as="geometry">
            <mxPoint x="540" y="168" as="sourcePoint" />
            <mxPoint x="852" y="168" as="targetPoint" />
          </mxGeometry>
        </mxCell>
        <mxCell id="fKFMLFZVbvzxOKWI5Wfe-30" value="" style="endArrow=none;dashed=1;html=1;dashPattern=1 2;strokeWidth=1;rounded=0;" edge="1" parent="1">
          <mxGeometry width="50" height="50" relative="1" as="geometry">
            <mxPoint x="540" y="216" as="sourcePoint" />
            <mxPoint x="852" y="216" as="targetPoint" />
          </mxGeometry>
        </mxCell>
        <mxCell id="fKFMLFZVbvzxOKWI5Wfe-39" value="" style="endArrow=none;dashed=1;html=1;dashPattern=1 2;strokeWidth=1;rounded=0;" edge="1" parent="1">
          <mxGeometry width="50" height="50" relative="1" as="geometry">
            <mxPoint x="48" y="216" as="sourcePoint" />
            <mxPoint x="360" y="216" as="targetPoint" />
          </mxGeometry>
        </mxCell>
        <mxCell id="fKFMLFZVbvzxOKWI5Wfe-37" value="" style="endArrow=none;dashed=1;html=1;dashPattern=1 2;strokeWidth=1;rounded=0;" edge="1" parent="1">
          <mxGeometry width="50" height="50" relative="1" as="geometry">
            <mxPoint x="48" y="120" as="sourcePoint" />
            <mxPoint x="360" y="120" as="targetPoint" />
          </mxGeometry>
        </mxCell>
        <mxCell id="fKFMLFZVbvzxOKWI5Wfe-38" value="" style="endArrow=none;dashed=1;html=1;dashPattern=1 2;strokeWidth=1;rounded=0;" edge="1" parent="1">
          <mxGeometry width="50" height="50" relative="1" as="geometry">
            <mxPoint x="48" y="168" as="sourcePoint" />
            <mxPoint x="360" y="168" as="targetPoint" />
          </mxGeometry>
        </mxCell>
        <mxCell id="fKFMLFZVbvzxOKWI5Wfe-17" value="" style="endArrow=classic;html=1;rounded=0;strokeWidth=2;endSize=3;startSize=3;" edge="1" parent="1">
          <mxGeometry width="50" height="50" relative="1" as="geometry">
            <mxPoint x="540" y="264" as="sourcePoint" />
            <mxPoint x="540" y="30" as="targetPoint" />
          </mxGeometry>
        </mxCell>
        <mxCell id="fKFMLFZVbvzxOKWI5Wfe-21" value="" style="rounded=0;whiteSpace=wrap;html=1;fillColor=#E6E6E6;" vertex="1" parent="1">
          <mxGeometry x="534" y="216" width="12" height="48" as="geometry" />
        </mxCell>
        <mxCell id="8WgfxnyTYB3wD649Tqen-4" value="" style="rounded=0;whiteSpace=wrap;html=1;fillColor=#E6E6E6;" parent="1" vertex="1">
          <mxGeometry x="138" y="132" width="12" height="132" as="geometry" />
        </mxCell>
        <mxCell id="8WgfxnyTYB3wD649Tqen-5" value="" style="rounded=0;whiteSpace=wrap;html=1;fillColor=#E6E6E6;" parent="1" vertex="1">
          <mxGeometry x="234" y="108" width="12" height="156" as="geometry" />
        </mxCell>
        <mxCell id="8WgfxnyTYB3wD649Tqen-6" value="" style="rounded=0;whiteSpace=wrap;html=1;fillColor=#E6E6E6;" parent="1" vertex="1">
          <mxGeometry x="330" y="228" width="12" height="36" as="geometry" />
        </mxCell>
        <mxCell id="CFI3S7LzRvd9iii7xQHX-20" value="" style="endArrow=classic;html=1;rounded=0;strokeWidth=2;endSize=3;startSize=3;" parent="1" edge="1">
          <mxGeometry width="50" height="50" relative="1" as="geometry">
            <mxPoint x="24" y="264" as="sourcePoint" />
            <mxPoint x="384" y="264" as="targetPoint" />
          </mxGeometry>
        </mxCell>
        <mxCell id="CFI3S7LzRvd9iii7xQHX-21" value="" style="endArrow=none;html=1;rounded=0;strokeWidth=2;" parent="1" edge="1">
          <mxGeometry width="50" height="50" relative="1" as="geometry">
            <mxPoint x="48" y="276" as="sourcePoint" />
            <mxPoint x="48" y="264" as="targetPoint" />
          </mxGeometry>
        </mxCell>
        <mxCell id="CFI3S7LzRvd9iii7xQHX-22" value="" style="endArrow=none;html=1;rounded=0;strokeWidth=2;" parent="1" edge="1">
          <mxGeometry width="50" height="50" relative="1" as="geometry">
            <mxPoint x="144" y="276" as="sourcePoint" />
            <mxPoint x="144" y="264" as="targetPoint" />
          </mxGeometry>
        </mxCell>
        <mxCell id="CFI3S7LzRvd9iii7xQHX-23" value="" style="endArrow=none;html=1;rounded=0;strokeWidth=2;" parent="1" edge="1">
          <mxGeometry width="50" height="50" relative="1" as="geometry">
            <mxPoint x="240" y="276" as="sourcePoint" />
            <mxPoint x="240" y="264" as="targetPoint" />
          </mxGeometry>
        </mxCell>
        <mxCell id="CFI3S7LzRvd9iii7xQHX-24" value="" style="endArrow=none;html=1;rounded=0;strokeWidth=2;" parent="1" edge="1">
          <mxGeometry width="50" height="50" relative="1" as="geometry">
            <mxPoint x="336" y="276" as="sourcePoint" />
            <mxPoint x="336" y="264" as="targetPoint" />
          </mxGeometry>
        </mxCell>
        <mxCell id="CFI3S7LzRvd9iii7xQHX-25" value="\(0\)" style="text;html=1;align=center;verticalAlign=middle;whiteSpace=wrap;rounded=0;fontSize=25;" parent="1" vertex="1">
          <mxGeometry x="18" y="270" width="60" height="48" as="geometry" />
        </mxCell>
        <mxCell id="CFI3S7LzRvd9iii7xQHX-27" value="\(1\)" style="text;html=1;align=center;verticalAlign=middle;whiteSpace=wrap;rounded=0;fontSize=25;" parent="1" vertex="1">
          <mxGeometry x="114" y="270" width="60" height="48" as="geometry" />
        </mxCell>
        <mxCell id="CFI3S7LzRvd9iii7xQHX-28" value="\(2\)" style="text;html=1;align=center;verticalAlign=middle;whiteSpace=wrap;rounded=0;fontSize=25;" parent="1" vertex="1">
          <mxGeometry x="210" y="270" width="60" height="48" as="geometry" />
        </mxCell>
        <mxCell id="CFI3S7LzRvd9iii7xQHX-29" value="\(3\)" style="text;html=1;align=center;verticalAlign=middle;whiteSpace=wrap;rounded=0;fontSize=25;" parent="1" vertex="1">
          <mxGeometry x="306" y="270" width="60" height="48" as="geometry" />
        </mxCell>
        <mxCell id="5YUE4atEXdMrc8s2eRj8-3" value="" style="endArrow=classic;html=1;rounded=0;strokeWidth=2;endSize=3;startSize=3;" parent="1" edge="1">
          <mxGeometry width="50" height="50" relative="1" as="geometry">
            <mxPoint x="48" y="264" as="sourcePoint" />
            <mxPoint x="48" y="30" as="targetPoint" />
          </mxGeometry>
        </mxCell>
        <mxCell id="8WgfxnyTYB3wD649Tqen-26" value="Freq. relativa" style="text;html=1;align=center;verticalAlign=middle;whiteSpace=wrap;rounded=0;fontSize=25;" parent="1" vertex="1">
          <mxGeometry x="18" y="3" width="222" height="42" as="geometry" />
        </mxCell>
        <mxCell id="fKFMLFZVbvzxOKWI5Wfe-1" value="" style="endArrow=classic;html=1;rounded=0;strokeWidth=2;endSize=3;startSize=3;" edge="1" parent="1">
          <mxGeometry width="50" height="50" relative="1" as="geometry">
            <mxPoint x="48" y="264" as="sourcePoint" />
            <mxPoint x="48" y="264.0000000000001" as="targetPoint" />
          </mxGeometry>
        </mxCell>
        <mxCell id="fKFMLFZVbvzxOKWI5Wfe-3" value="Variável" style="text;html=1;align=center;verticalAlign=middle;whiteSpace=wrap;rounded=0;fontSize=25;" vertex="1" parent="1">
          <mxGeometry x="348" y="264" width="120" height="42" as="geometry" />
        </mxCell>
        <mxCell id="fKFMLFZVbvzxOKWI5Wfe-4" value="" style="rounded=0;whiteSpace=wrap;html=1;fillColor=#E6E6E6;" vertex="1" parent="1">
          <mxGeometry x="630" y="120" width="12" height="144" as="geometry" />
        </mxCell>
        <mxCell id="fKFMLFZVbvzxOKWI5Wfe-5" value="" style="rounded=0;whiteSpace=wrap;html=1;fillColor=#E6E6E6;" vertex="1" parent="1">
          <mxGeometry x="726" y="120" width="12" height="144" as="geometry" />
        </mxCell>
        <mxCell id="fKFMLFZVbvzxOKWI5Wfe-6" value="" style="rounded=0;whiteSpace=wrap;html=1;fillColor=#E6E6E6;" vertex="1" parent="1">
          <mxGeometry x="822" y="216" width="12" height="48" as="geometry" />
        </mxCell>
        <mxCell id="fKFMLFZVbvzxOKWI5Wfe-8" value="" style="endArrow=classic;html=1;rounded=0;strokeWidth=2;endSize=3;startSize=3;" edge="1" parent="1">
          <mxGeometry width="50" height="50" relative="1" as="geometry">
            <mxPoint x="516" y="264" as="sourcePoint" />
            <mxPoint x="876" y="264" as="targetPoint" />
          </mxGeometry>
        </mxCell>
        <mxCell id="fKFMLFZVbvzxOKWI5Wfe-9" value="" style="endArrow=none;html=1;rounded=0;strokeWidth=2;" edge="1" parent="1">
          <mxGeometry width="50" height="50" relative="1" as="geometry">
            <mxPoint x="540" y="276" as="sourcePoint" />
            <mxPoint x="540" y="264" as="targetPoint" />
          </mxGeometry>
        </mxCell>
        <mxCell id="fKFMLFZVbvzxOKWI5Wfe-10" value="" style="endArrow=none;html=1;rounded=0;strokeWidth=2;" edge="1" parent="1">
          <mxGeometry width="50" height="50" relative="1" as="geometry">
            <mxPoint x="636" y="276" as="sourcePoint" />
            <mxPoint x="636" y="264" as="targetPoint" />
          </mxGeometry>
        </mxCell>
        <mxCell id="fKFMLFZVbvzxOKWI5Wfe-11" value="" style="endArrow=none;html=1;rounded=0;strokeWidth=2;" edge="1" parent="1">
          <mxGeometry width="50" height="50" relative="1" as="geometry">
            <mxPoint x="732" y="276" as="sourcePoint" />
            <mxPoint x="732" y="264" as="targetPoint" />
          </mxGeometry>
        </mxCell>
        <mxCell id="fKFMLFZVbvzxOKWI5Wfe-12" value="" style="endArrow=none;html=1;rounded=0;strokeWidth=2;" edge="1" parent="1">
          <mxGeometry width="50" height="50" relative="1" as="geometry">
            <mxPoint x="828" y="276" as="sourcePoint" />
            <mxPoint x="828" y="264" as="targetPoint" />
          </mxGeometry>
        </mxCell>
        <mxCell id="fKFMLFZVbvzxOKWI5Wfe-13" value="\(0\)" style="text;html=1;align=center;verticalAlign=middle;whiteSpace=wrap;rounded=0;fontSize=25;" vertex="1" parent="1">
          <mxGeometry x="510" y="270" width="60" height="48" as="geometry" />
        </mxCell>
        <mxCell id="fKFMLFZVbvzxOKWI5Wfe-14" value="\(1\)" style="text;html=1;align=center;verticalAlign=middle;whiteSpace=wrap;rounded=0;fontSize=25;" vertex="1" parent="1">
          <mxGeometry x="606" y="270" width="60" height="48" as="geometry" />
        </mxCell>
        <mxCell id="fKFMLFZVbvzxOKWI5Wfe-15" value="\(2\)" style="text;html=1;align=center;verticalAlign=middle;whiteSpace=wrap;rounded=0;fontSize=25;" vertex="1" parent="1">
          <mxGeometry x="702" y="270" width="60" height="48" as="geometry" />
        </mxCell>
        <mxCell id="fKFMLFZVbvzxOKWI5Wfe-16" value="\(3\)" style="text;html=1;align=center;verticalAlign=middle;whiteSpace=wrap;rounded=0;fontSize=25;" vertex="1" parent="1">
          <mxGeometry x="798" y="270" width="60" height="48" as="geometry" />
        </mxCell>
        <mxCell id="fKFMLFZVbvzxOKWI5Wfe-18" value="\(p_X(x)\)" style="text;html=1;align=center;verticalAlign=middle;whiteSpace=wrap;rounded=0;fontSize=25;" vertex="1" parent="1">
          <mxGeometry x="534" y="3" width="108" height="42" as="geometry" />
        </mxCell>
        <mxCell id="fKFMLFZVbvzxOKWI5Wfe-19" value="" style="endArrow=classic;html=1;rounded=0;strokeWidth=2;endSize=3;startSize=3;" edge="1" parent="1">
          <mxGeometry width="50" height="50" relative="1" as="geometry">
            <mxPoint x="540" y="264" as="sourcePoint" />
            <mxPoint x="540" y="264" as="targetPoint" />
          </mxGeometry>
        </mxCell>
        <mxCell id="fKFMLFZVbvzxOKWI5Wfe-20" value="\(x\)" style="text;html=1;align=center;verticalAlign=middle;whiteSpace=wrap;rounded=0;fontSize=25;" vertex="1" parent="1">
          <mxGeometry x="852" y="264" width="42" height="42" as="geometry" />
        </mxCell>
        <mxCell id="fKFMLFZVbvzxOKWI5Wfe-22" value="\(\frac{1}{8}\)" style="text;html=1;align=center;verticalAlign=middle;whiteSpace=wrap;rounded=0;fontSize=15;" vertex="1" parent="1">
          <mxGeometry x="507" y="194" width="24" height="42" as="geometry" />
        </mxCell>
        <mxCell id="fKFMLFZVbvzxOKWI5Wfe-23" value="" style="endArrow=none;html=1;rounded=0;" edge="1" parent="1">
          <mxGeometry width="50" height="50" relative="1" as="geometry">
            <mxPoint x="528" y="216" as="sourcePoint" />
            <mxPoint x="540" y="216" as="targetPoint" />
          </mxGeometry>
        </mxCell>
        <mxCell id="fKFMLFZVbvzxOKWI5Wfe-24" value="" style="endArrow=none;html=1;rounded=0;" edge="1" parent="1">
          <mxGeometry width="50" height="50" relative="1" as="geometry">
            <mxPoint x="528" y="168" as="sourcePoint" />
            <mxPoint x="540" y="168" as="targetPoint" />
          </mxGeometry>
        </mxCell>
        <mxCell id="fKFMLFZVbvzxOKWI5Wfe-25" value="" style="endArrow=none;html=1;rounded=0;" edge="1" parent="1">
          <mxGeometry width="50" height="50" relative="1" as="geometry">
            <mxPoint x="528" y="120" as="sourcePoint" />
            <mxPoint x="540" y="120" as="targetPoint" />
          </mxGeometry>
        </mxCell>
        <mxCell id="fKFMLFZVbvzxOKWI5Wfe-26" value="\(\frac{2}{8}\)" style="text;html=1;align=center;verticalAlign=middle;whiteSpace=wrap;rounded=0;fontSize=15;" vertex="1" parent="1">
          <mxGeometry x="507" y="146" width="24" height="42" as="geometry" />
        </mxCell>
        <mxCell id="fKFMLFZVbvzxOKWI5Wfe-27" value="\(\frac{3}{8}\)" style="text;html=1;align=center;verticalAlign=middle;whiteSpace=wrap;rounded=0;fontSize=15;" vertex="1" parent="1">
          <mxGeometry x="507" y="98" width="24" height="42" as="geometry" />
        </mxCell>
        <mxCell id="fKFMLFZVbvzxOKWI5Wfe-31" value="\(\frac{1}{8}\)" style="text;html=1;align=center;verticalAlign=middle;whiteSpace=wrap;rounded=0;fontSize=15;" vertex="1" parent="1">
          <mxGeometry x="15" y="194" width="24" height="42" as="geometry" />
        </mxCell>
        <mxCell id="fKFMLFZVbvzxOKWI5Wfe-32" value="" style="endArrow=none;html=1;rounded=0;" edge="1" parent="1">
          <mxGeometry width="50" height="50" relative="1" as="geometry">
            <mxPoint x="36" y="216" as="sourcePoint" />
            <mxPoint x="48" y="216" as="targetPoint" />
          </mxGeometry>
        </mxCell>
        <mxCell id="fKFMLFZVbvzxOKWI5Wfe-33" value="" style="endArrow=none;html=1;rounded=0;" edge="1" parent="1">
          <mxGeometry width="50" height="50" relative="1" as="geometry">
            <mxPoint x="36" y="168" as="sourcePoint" />
            <mxPoint x="48" y="168" as="targetPoint" />
          </mxGeometry>
        </mxCell>
        <mxCell id="fKFMLFZVbvzxOKWI5Wfe-34" value="" style="endArrow=none;html=1;rounded=0;" edge="1" parent="1">
          <mxGeometry width="50" height="50" relative="1" as="geometry">
            <mxPoint x="36" y="120" as="sourcePoint" />
            <mxPoint x="48" y="120" as="targetPoint" />
          </mxGeometry>
        </mxCell>
        <mxCell id="fKFMLFZVbvzxOKWI5Wfe-35" value="\(\frac{2}{8}\)" style="text;html=1;align=center;verticalAlign=middle;whiteSpace=wrap;rounded=0;fontSize=15;" vertex="1" parent="1">
          <mxGeometry x="15" y="146" width="24" height="42" as="geometry" />
        </mxCell>
        <mxCell id="fKFMLFZVbvzxOKWI5Wfe-36" value="\(\frac{3}{8}\)" style="text;html=1;align=center;verticalAlign=middle;whiteSpace=wrap;rounded=0;fontSize=15;" vertex="1" parent="1">
          <mxGeometry x="15" y="98" width="24" height="42" as="geometry" />
        </mxCell>
        <mxCell id="fKFMLFZVbvzxOKWI5Wfe-40" value="" style="rounded=0;whiteSpace=wrap;html=1;fillColor=#E6E6E6;" vertex="1" parent="1">
          <mxGeometry x="42" y="204" width="12" height="60" as="geometry" />
        </mxCell>
      </root>
    </mxGraphModel>
  </diagram>
</mxfile>
